<svg xmlns="http://www.w3.org/2000/svg" xmlns:xlink="http://www.w3.org/1999/xlink" viewBox="0 0 187.95 276.39"><defs><style>.cls-1{fill:url(#linear-gradient);}</style><linearGradient id="linear-gradient" y1="138.2" x2="187.95" y2="138.2" gradientUnits="userSpaceOnUse"><stop offset="0" stop-color="#6ac5ad"/><stop offset="0.06" stop-color="#6ac5ad"/><stop offset="0.12" stop-color="#5ec4b8"/><stop offset="0.2" stop-color="#54c3c3"/><stop offset="0.29" stop-color="#50c3c6"/><stop offset="0.52" stop-color="#4fb8db"/><stop offset="0.78" stop-color="#818bc5"/><stop offset="0.95" stop-color="#9361a8"/><stop offset="1" stop-color="#9361a8"/></linearGradient></defs><title>Asset 2</title><g id="Layer_2" data-name="Layer 2"><g id="Layer_1-2" data-name="Layer 1"><path class="cls-1" d="M122.19,138.5l64.67-98.86L160.2,0H28.75L0,39.74,67.23,138.4,2,237.61l.86.56-.43.31,24.51,33.87-.07.11.29.19,2.7,3.73H161.28L188,236.74ZM48.1,37.21H9.79l20.27-28ZM36,6.45H154L133.78,37.21h-78Zm123.3,3.73,18.18,27h-36ZM129.53,43.66,94.35,97.15,59.92,43.66Zm7.72,0h39.27L52.42,233.37H12.49ZM95.42,179.42l34.84,54H60.13Zm39,60.41,19.44,30.11H36.21l19.7-30.11Zm7.68,0h36l-18.36,27.3Zm35.83-6.46h-40L99.29,173.51l19.06-29.14ZM10.48,43.66H52.25l38.22,59.39L71.06,132.57Zm.85,196.16H48.19l-17.5,26.75Z"/></g></g></svg>